<svg xmlns="http://www.w3.org/2000/svg" viewBox="0 0 64 64" role="img" aria-label="YourRentalRights scales of justice">
  <rect x="2" y="2" width="60" height="60" rx="12" fill="#f1f5f9" stroke="#e2e8f0" stroke-width="2"/>
  <g fill="none" stroke="#334155" stroke-width="4" stroke-linecap="round" stroke-linejoin="round" transform="translate(8 8) scale(2)">
    <path d="m16 16 3-8 3 8c-.87.65-1.92 1-3 1s-2.13-.35-3-1Z"/>
    <path d="m2 16 3-8 3 8c-.87.65-1.92 1-3 1s-2.13-.35-3-1Z"/>
    <path d="M7 21h10"/>
    <path d="M12 3v18"/>
    <path d="M3 7h2c2 0 5-1 7-2 2 1 5 2 7 2h2"/>
  </g>
</svg>
